<svg xmlns="http://www.w3.org/2000/svg" xmlns:xlink="http://www.w3.org/1999/xlink" width="108" height="123" viewBox="0 0 108 123"><defs><clipPath id="a"><rect width="109" height="123" transform="translate(-0.5 -0.5)" fill="#fff"/></clipPath><clipPath id="c"><rect width="108" height="123"/></clipPath></defs><g id="b" clip-path="url(#c)"><g transform="translate(0 0.5)" clip-path="url(#a)"><path d="M15.739.6H48.261L64.578,28.753,48.262,57.013H15.738L-.578,28.753Zm31.947,1H16.315L.578,28.754l15.738,27.26H47.685l15.738-27.26Z" transform="translate(22 29.607)" fill="#e5e5e5"/><path d="M15.739.6H48.261L64.578,28.753,48.262,57.013H15.738L-.578,28.753Zm31.947,1H16.315L.578,28.754l15.738,27.26H47.685l15.738-27.26Z" transform="translate(22 -31.807)" fill="#e5e5e5"/><path d="M15.739.6H48.261L64.578,28.753,48.262,57.013H15.738L-.578,28.753Zm31.947,1H16.315L.578,28.754l15.738,27.26H47.685l15.738-27.26Z" transform="translate(22 91.02)" fill="#e5e5e5"/><path d="M15.739.6H48.261L64.578,28.753,48.262,57.013H15.738L-.578,28.753Zm31.947,1H16.315L.578,28.754l15.738,27.26H47.685l15.738-27.26Z" transform="translate(-32 -1.1)" fill="#e5e5e5"/><path d="M15.739.6H48.261L64.578,28.753,48.262,57.013H15.738L-.578,28.753Zm31.947,1H16.315L.578,28.754l15.738,27.26H47.685l15.738-27.26Z" transform="translate(76 60.313)" fill="#e5e5e5"/><path d="M15.739.6H48.261L64.578,28.753,48.262,57.013H15.738L-.578,28.753Zm31.947,1H16.315L.578,28.754l15.738,27.26H47.685l15.738-27.26Z" transform="translate(76 -1.1)" fill="#e5e5e5"/><path d="M15.739.6H48.261L64.578,28.753,48.262,57.013H15.738L-.578,28.753Zm31.947,1H16.315L.578,28.754l15.738,27.26H47.685l15.738-27.26Z" transform="translate(-32 60.313)" fill="#e5e5e5"/></g></g></svg>